<?xml version="1.0" encoding="UTF-8" standalone="no"?>
<!-- Created with Inkscape (http://www.inkscape.org/) -->
<svg
   xmlns:dc="http://purl.org/dc/elements/1.1/"
   xmlns:cc="http://creativecommons.org/ns#"
   xmlns:rdf="http://www.w3.org/1999/02/22-rdf-syntax-ns#"
   xmlns:svg="http://www.w3.org/2000/svg"
   xmlns="http://www.w3.org/2000/svg"
   xmlns:xlink="http://www.w3.org/1999/xlink"
   xmlns:sodipodi="http://sodipodi.sourceforge.net/DTD/sodipodi-0.dtd"
   xmlns:inkscape="http://www.inkscape.org/namespaces/inkscape"
   width="741.33057"
   height="593.87024"
   id="svg2"
   sodipodi:version="0.32"
   inkscape:version="0.46"
   sodipodi:docname="logo.svg"
   inkscape:output_extension="org.inkscape.output.svg.inkscape"
   version="1.0"
   inkscape:export-filename="/home/ivan/qt/QWord/images/logo.png"
   inkscape:export-xdpi="3.04"
   inkscape:export-ydpi="3.04">
  <defs
     id="defs4">
    <linearGradient
       id="linearGradient3180">
      <stop
         style="stop-color:#0000d5;stop-opacity:0.96078432;"
         offset="0"
         id="stop3182" />
      <stop
         style="stop-color:#f50000;stop-opacity:0;"
         offset="1"
         id="stop3184" />
    </linearGradient>
    <inkscape:perspective
       sodipodi:type="inkscape:persp3d"
       inkscape:vp_x="0 : 526.18109 : 1"
       inkscape:vp_y="0 : 1000 : 0"
       inkscape:vp_z="744.09448 : 526.18109 : 1"
       inkscape:persp3d-origin="372.04724 : 350.78739 : 1"
       id="perspective10" />
    <linearGradient
       inkscape:collect="always"
       xlink:href="#linearGradient3180"
       id="linearGradient3186"
       x1="150.3942"
       y1="206.82237"
       x2="187.1942"
       y2="206.82237"
       gradientUnits="userSpaceOnUse"
       gradientTransform="matrix(20.144852,0,0,20.144852,-3027.3399,-3869.3853)" />
  </defs>
  <sodipodi:namedview
     id="base"
     pagecolor="#ffffff"
     bordercolor="#666666"
     borderopacity="1.0"
     gridtolerance="10000"
     guidetolerance="10"
     objecttolerance="10"
     inkscape:pageopacity="0.0"
     inkscape:pageshadow="2"
     inkscape:zoom="0.61459365"
     inkscape:cx="170.52439"
     inkscape:cy="552.30359"
     inkscape:document-units="px"
     inkscape:current-layer="layer1"
     showgrid="false"
     inkscape:window-width="1280"
     inkscape:window-height="951"
     inkscape:window-x="0"
     inkscape:window-y="24" />
  <metadata
     id="metadata7">
    <rdf:RDF>
      <cc:Work
         rdf:about="">
        <dc:format>image/svg+xml</dc:format>
        <dc:type
           rdf:resource="http://purl.org/dc/dcmitype/StillImage" />
      </cc:Work>
    </rdf:RDF>
  </metadata>
  <g
     inkscape:label="Layer 1"
     inkscape:groupmode="layer"
     id="layer1"
     transform="translate(-2.3288877,-8.5591417e-2)">
    <path
       style="font-size:40px;font-style:normal;font-weight:normal;fill:url(#linearGradient3186);fill-opacity:1;stroke:none;stroke-width:1px;stroke-linecap:butt;stroke-linejoin:miter;stroke-opacity:1;font-family:Century Schoolbook L"
       d="M 467.27207,423.93327 L 423.7592,81.470794 C 422.9534,73.412852 422.14761,66.966499 422.14761,59.714358 C 422.14761,42.792674 431.81714,37.95791 471.30105,37.95791 L 486.61113,37.95791 L 490.64011,0.085591417 L 266.62935,0.085591417 L 262.60038,37.95791 L 273.0757,37.95791 C 323.84072,37.95791 328.67549,40.375298 333.51025,75.02444 L 339.15082,115.31415 L 203.77741,423.93327 L 160.26453,99.198265 C 156.23555,70.995476 156.23555,66.966499 156.23555,62.131734 C 156.23555,44.404263 168.32247,37.95791 202.16583,37.95791 L 216.67012,37.95791 L 221.50487,0.085591417 L 6.3578522,0.085591417 L 2.3288877,37.95791 L 23.279536,37.95791 C 41.007007,37.95791 54.705501,41.986887 61.957655,50.850616 C 67.598208,56.491181 73.238773,79.053405 77.267738,108.86779 L 140.92547,593.95582 L 169.12826,593.95582 L 352.04353,187.02982 L 408.4491,593.95582 L 439.06928,593.95582 L 630.84828,153.18647 C 668.72059,67.7725 684.83648,50.044828 739.63047,37.95791 L 743.65944,0.085591417 L 555.90943,0.085591417 L 551.88045,37.95791 L 565.57896,37.95791 C 600.2281,37.95791 617.14977,46.015851 617.14977,62.937534 C 617.14977,73.412852 611.50922,90.334523 598.61651,120.9547 L 467.27207,423.93327"
       id="text2387" />
  </g>
</svg>
