<?xml version="1.0" encoding="UTF-8" standalone="no"?>
<!-- Created with Inkscape (http://www.inkscape.org/) -->
<svg
   xmlns:dc="http://purl.org/dc/elements/1.1/"
   xmlns:cc="http://creativecommons.org/ns#"
   xmlns:rdf="http://www.w3.org/1999/02/22-rdf-syntax-ns#"
   xmlns:svg="http://www.w3.org/2000/svg"
   xmlns="http://www.w3.org/2000/svg"
   xmlns:sodipodi="http://sodipodi.sourceforge.net/DTD/sodipodi-0.dtd"
   xmlns:inkscape="http://www.inkscape.org/namespaces/inkscape"
   width="256"
   height="256"
   id="svg3310"
   sodipodi:version="0.32"
   inkscape:version="0.46"
   sodipodi:docname="qword.svg"
   inkscape:output_extension="org.inkscape.output.svg.inkscape"
   version="1.0">
  <defs
     id="defs3312">
    <inkscape:perspective
       sodipodi:type="inkscape:persp3d"
       inkscape:vp_x="0 : 526.18109 : 1"
       inkscape:vp_y="0 : 1000 : 0"
       inkscape:vp_z="744.09448 : 526.18109 : 1"
       inkscape:persp3d-origin="372.04724 : 350.78739 : 1"
       id="perspective3318" />
  </defs>
  <sodipodi:namedview
     id="base"
     pagecolor="#ffffff"
     bordercolor="#666666"
     borderopacity="1.0"
     gridtolerance="10000"
     guidetolerance="10"
     objecttolerance="10"
     inkscape:pageopacity="0.0"
     inkscape:pageshadow="2"
     inkscape:zoom="1.6454386"
     inkscape:cx="27.271336"
     inkscape:cy="75.272551"
     inkscape:document-units="px"
     inkscape:current-layer="layer1"
     showgrid="false"
     inkscape:window-width="1280"
     inkscape:window-height="979"
     inkscape:window-x="0"
     inkscape:window-y="24" />
  <metadata
     id="metadata3315">
    <rdf:RDF>
      <cc:Work
         rdf:about="">
        <dc:format>image/svg+xml</dc:format>
        <dc:type
           rdf:resource="http://purl.org/dc/dcmitype/StillImage" />
      </cc:Work>
    </rdf:RDF>
  </metadata>
  <g
     inkscape:label="Layer 1"
     inkscape:groupmode="layer"
     id="layer1">
    <g
       id="g3301"
       transform="matrix(6.3321463,0,0,6.7872954,-1692.3595,-2063.0362)">
      <text
         transform="scale(1.1694798,0.855081)"
         id="text3529"
         y="389.7821"
         x="226.72005"
         style="font-size:48.0802803px;font-style:normal;font-variant:normal;font-weight:bold;font-stretch:normal;fill:#ffffff;fill-opacity:1;stroke:#000000;stroke-width:1.26100004;stroke-linecap:butt;stroke-linejoin:miter;stroke-miterlimit:4;stroke-dasharray:none;stroke-opacity:1;font-family:Bitstream Charter;-inkscape-font-specification:Bitstream Charter Bold"
         xml:space="preserve"><tspan
           style="font-style:italic;font-variant:normal;font-weight:normal;font-stretch:normal;fill:#ffffff;fill-opacity:1;stroke:#000000;stroke-width:1.26100004;stroke-miterlimit:4;stroke-dasharray:none;stroke-opacity:1;font-family:Liberation Sans;-inkscape-font-specification:Liberation Sans Italic"
           y="389.7821"
           x="226.72005"
           id="tspan3531"
           sodipodi:role="line">Q</tspan></text>
      <path
         sodipodi:nodetypes="cssssssssss"
         id="path3294"
         d="M 281.47689,311.92804 C 281.83431,311.45685 278.2538,312.49241 276.84777,315.97708 C 274.54784,321.6772 277.17971,327.369 280.85507,327.17846 C 284.11898,327.00926 287.03101,319.89856 288.10965,320.3317 C 289.41531,320.85597 286.66094,324.25761 288.73147,327.36022 C 291.42154,331.39115 302.43378,321.55114 299.9934,314.29635 C 299.73437,313.52632 298.07729,311.64315 298.12792,312.46284 C 298.44841,317.728 295.50994,322.97938 292.18606,323.08199 C 289.91769,323.15202 292.24438,314.90753 289.97515,314.90753 C 287.7059,314.90753 283.3923,323.45019 281.13144,323.23478 C 278.33937,322.96877 278.35164,316.04828 281.47689,311.92804 z"
         style="fill:#ff0000;fill-opacity:1;fill-rule:evenodd;stroke:#ff0000;stroke-width:0.7101776;stroke-linecap:butt;stroke-linejoin:miter;stroke-miterlimit:4;stroke-dasharray:none;stroke-opacity:1" />
      <path
         id="path3288"
         d="M 283.01868,329.88589 C 282.89714,329.87428 282.48519,329.83468 282.10322,329.79788 C 279.07803,329.50644 276.64901,328.41412 275.32491,326.74968 C 273.74864,324.76824 273.395,321.83809 274.33711,318.56496 C 274.8309,316.84938 275.62959,315.19803 276.62821,313.8279 C 277.10445,313.1745 278.51408,311.79534 279.19802,311.31366 C 280.39348,310.47171 281.67687,309.85188 283.32051,309.32263 C 286.78327,308.20761 291.76699,308.03091 295.06307,308.90627 C 296.73521,309.35035 298.01335,310.02764 299.04684,311.01728 C 299.6593,311.60374 300.01266,312.07814 300.36445,312.78618 C 300.85516,313.77385 301.05463,314.6059 301.11363,315.91134 C 301.18283,317.44242 300.94973,318.96606 300.40778,320.52509 C 298.42578,326.22674 293.84934,329.35076 286.73178,329.86076 C 285.88657,329.92132 283.55492,329.9371 283.01868,329.88589 L 283.01868,329.88589 z M 291.5734,328.54235 C 293.08475,328.17947 294.72821,327.12708 296.40569,325.44801 C 298.5199,323.33181 299.96281,320.84638 300.51846,318.36372 C 300.64318,317.80645 300.66463,317.53474 300.6647,316.51111 C 300.66477,315.45439 300.64709,315.2439 300.51619,314.74335 C 300.33183,314.03832 300.10776,313.60821 299.58342,312.95287 C 298.94794,312.15861 298.49694,311.83105 298.13291,311.89934 C 297.7876,311.96412 297.74296,312.12603 297.74042,313.32282 C 297.73709,314.88388 297.52479,316.14997 297.0206,317.6155 C 296.01122,320.54947 294.02266,322.66673 292.27641,322.66673 C 291.61635,322.66673 291.53687,322.31359 291.47357,319.09963 C 291.41893,316.32556 291.37248,315.89314 291.0624,315.27243 C 290.69507,314.53711 289.99785,314.34201 289.19369,314.74952 C 288.32121,315.19163 287.64325,315.9077 285.20948,318.95765 C 282.56298,322.27419 281.7163,323.03447 280.93131,322.79928 C 279.68057,322.42455 279.14687,319.86842 279.71066,316.95306 C 279.99957,315.45908 280.60794,313.95059 281.44022,312.66446 C 281.77769,312.14297 281.94539,311.81842 281.94539,311.6868 C 281.94539,311.65961 281.83524,311.58769 281.70061,311.52699 C 281.36307,311.37478 280.93145,311.47085 280.13805,311.8748 C 277.68909,313.12164 276.20601,315.43188 275.72293,318.75239 C 275.57552,319.76561 275.62082,321.48683 275.81925,322.41232 C 276.16926,324.04479 276.81903,325.32733 277.77133,326.2654 C 279.17921,327.65225 280.93376,327.94515 282.4189,327.04126 C 283.60401,326.31997 284.43998,325.39206 286.51434,322.49536 C 287.36187,321.31185 287.90522,320.67865 288.01502,320.74651 C 288.11542,320.80857 288.07081,321.3185 287.88499,322.23274 C 287.58084,323.7292 287.54319,324.06217 287.58397,324.89478 C 287.62949,325.8242 287.73284,326.23819 288.1123,327.01113 C 288.53804,327.87834 289.02517,328.32851 289.80564,328.57599 C 290.18496,328.69627 290.99672,328.68082 291.5734,328.54235 L 291.5734,328.54235 z"
         style="fill:#000000;fill-opacity:1;stroke:#000000;stroke-width:0.06376588;stroke-miterlimit:4;stroke-dasharray:none;stroke-dashoffset:0;stroke-opacity:1" />
      <path
         id="path3290"
         d="M 282.95554,331.14858 C 282.83401,331.13698 282.42555,331.09763 282.04785,331.06114 C 280.16443,330.87921 278.56924,330.449 277.13676,329.73666 C 274.65193,328.50102 273.14837,326.454 272.68632,323.67763 C 272.56286,322.93578 272.54852,321.22482 272.6588,320.39389 C 273.01565,317.70506 274.30842,314.67048 275.9613,312.64172 C 278.30769,309.76175 281.98046,307.9221 286.57651,307.32467 C 288.91813,307.02029 291.66309,307.02109 293.65256,307.32671 C 298.34227,308.04716 301.29284,310.38014 302.14906,314.04479 C 302.40886,315.15676 302.46067,316.37794 302.30876,317.80918 C 302.19074,318.92111 302.03664,319.6109 301.64021,320.80168 C 300.36166,324.64223 297.89088,327.51587 294.41446,329.20558 C 292.08548,330.33757 289.8028,330.90673 286.71205,331.12606 C 285.89954,331.18372 283.47564,331.19825 282.95554,331.14858 L 282.95554,331.14858 z M 286.64891,329.92539 C 292.6399,329.48865 296.72477,327.34126 299.16195,323.34738 C 300.19912,321.64774 300.98126,319.36135 301.11179,317.64754 C 301.13559,317.33502 301.13705,317.09593 301.11503,317.11623 C 301.09301,317.13653 301.05712,317.34961 301.03528,317.58974 C 300.97515,318.25064 300.97274,318.26956 300.93151,318.40515 C 300.91039,318.4746 300.87759,318.63086 300.85863,318.75239 C 300.79875,319.13624 300.75939,319.31261 300.69697,319.47679 C 300.66362,319.5645 300.65332,319.63627 300.67407,319.63627 C 300.69482,319.63627 300.67644,319.67889 300.63321,319.73097 C 300.58998,319.78306 300.5733,319.82568 300.59613,319.82568 C 300.61897,319.82568 300.60934,319.87858 300.57473,319.94325 C 300.54012,320.00792 300.49527,320.15468 300.47506,320.26939 C 300.45485,320.3841 300.41868,320.50876 300.39468,320.54641 C 300.37068,320.58406 300.34815,320.62906 300.34462,320.64643 C 300.33705,320.68365 300.26408,320.87891 300.19127,321.0568 C 300.11379,321.24607 300.04502,321.43156 300.03888,321.4678 C 300.03589,321.48551 299.92908,321.69859 299.80153,321.94131 C 299.67398,322.18404 299.56344,322.41104 299.55589,322.44576 C 299.54833,322.48048 299.50737,322.56572 299.46486,322.63516 C 299.42235,322.70461 299.25011,322.99643 299.08209,323.28364 C 298.54724,324.19797 297.58527,325.39199 296.91363,325.97517 C 296.82977,326.04799 296.63055,326.2212 296.47091,326.3601 C 296.31128,326.499 296.02476,326.72534 295.83421,326.86309 C 295.64365,327.00084 295.47354,327.12869 295.45618,327.1472 C 295.43882,327.16571 295.32517,327.23553 295.20364,327.30236 C 295.08211,327.3692 294.96846,327.44126 294.9511,327.4625 C 294.93374,327.48374 294.70646,327.61092 294.44603,327.74511 C 294.1856,327.87931 293.8971,328.04164 293.80493,328.10584 C 293.71276,328.17004 293.60522,328.22257 293.56596,328.22257 C 293.52669,328.22257 293.42454,328.26845 293.33895,328.32453 C 293.25336,328.38061 293.18334,328.40829 293.18334,328.38605 C 293.18334,328.3638 293.091,328.39485 292.97815,328.45506 C 292.86529,328.51526 292.75876,328.56692 292.74139,328.56986 C 292.66461,328.58284 292.19867,328.7479 292.14162,328.78232 C 292.10689,328.80327 292.05717,328.8244 292.03113,328.82927 C 292.00509,328.83415 291.96957,328.84523 291.95221,328.85391 C 291.93485,328.8626 291.89223,328.8768 291.85751,328.88548 C 291.82279,328.89416 291.78017,328.90837 291.76281,328.91705 C 291.74545,328.92573 291.70283,328.93994 291.66811,328.94862 C 291.63338,328.9573 291.59787,328.97013 291.58919,328.97712 C 291.56989,328.99267 291.44314,329.02446 291.20061,329.07457 C 291.09975,329.09541 290.9648,329.14052 290.90073,329.17481 C 290.83665,329.20911 290.78422,329.22394 290.78422,329.20778 C 290.78422,329.19162 290.69189,329.20648 290.57904,329.24079 C 290.46618,329.27511 290.31703,329.3155 290.24758,329.33056 C 290.17813,329.34562 290.05028,329.37392 289.96347,329.39344 C 289.77265,329.43634 289.62388,329.46516 289.33213,329.5157 C 289.21059,329.53676 289.02593,329.56922 288.92175,329.58784 C 288.81758,329.60646 288.66132,329.63079 288.57451,329.6419 C 288.4877,329.65302 288.30304,329.67823 288.16414,329.69794 C 288.02524,329.71764 287.72693,329.75138 287.50123,329.77291 C 287.27552,329.79443 286.99142,329.82229 286.86988,329.83482 C 286.74835,329.84734 285.94608,329.85984 285.08707,329.86259 C 284.22806,329.86534 283.46097,329.89341 283.38244,329.92496 C 283.18111,330.00585 285.54095,330.00616 286.64891,329.92539 L 286.64891,329.92539 z M 283.13827,329.89948 C 283.12302,329.88423 282.8981,329.85446 282.63845,329.83332 C 282.3788,329.81218 282.08113,329.78209 281.97696,329.76645 C 281.87278,329.75081 281.67391,329.72408 281.53501,329.70705 C 281.39612,329.69001 281.18304,329.65979 281.0615,329.63988 C 280.85929,329.60676 280.77935,329.59194 280.39859,329.51693 C 280.32914,329.50325 280.2084,329.47633 280.13027,329.45709 C 280.05214,329.43786 279.9385,329.41044 279.87773,329.39616 C 279.81697,329.38189 279.68912,329.33997 279.59363,329.30303 C 279.49814,329.26608 279.42001,329.24686 279.42001,329.26033 C 279.42001,329.27379 279.19983,329.19922 278.93071,329.09462 C 278.6616,328.99001 278.41301,328.89811 278.37829,328.8904 C 278.25321,328.86262 277.17824,328.31617 277.15769,328.26992 C 277.14611,328.24388 277.09639,328.22257 277.0472,328.22257 C 276.99801,328.22257 276.95776,328.19624 276.95776,328.16406 C 276.95776,328.13189 276.91246,328.09637 276.8571,328.08515 C 276.70796,328.0549 275.75656,327.22694 275.47014,326.87813 C 275.33342,326.71164 275.15767,326.49856 275.07958,326.40462 C 275.0015,326.31069 274.93757,326.20069 274.93753,326.16017 C 274.93749,326.11966 274.91615,326.07705 274.8901,326.06547 C 274.76678,326.01066 274.28346,324.90223 274.14452,324.35558 C 274.13791,324.32954 274.12676,324.30113 274.11977,324.29244 C 274.10549,324.27473 274.08191,324.17228 274.03079,323.90589 C 274.01165,323.80614 273.98053,323.70907 273.96165,323.69018 C 273.883,323.61154 273.93738,323.95007 274.08549,324.46115 C 274.96124,327.48318 277.49538,329.25544 281.75598,329.82552 C 282.40474,329.91232 283.1933,329.95451 283.13826,329.89948 L 283.13827,329.89948 z M 291.41557,328.57496 C 291.68369,328.5195 291.82527,328.48531 291.84173,328.47205 C 291.85041,328.46505 291.87882,328.45438 291.90486,328.44833 C 292.02239,328.42103 292.27907,328.33607 292.39415,328.28636 C 292.74427,328.13513 293.53449,327.74677 293.56214,327.71233 C 293.5795,327.69072 293.70025,327.62297 293.83046,327.5618 C 293.96068,327.50062 294.06722,327.42539 294.06722,327.39463 C 294.06722,327.36386 294.10983,327.33869 294.16192,327.33869 C 294.21401,327.33869 294.25662,327.31028 294.25662,327.27555 C 294.25662,327.24083 294.28623,327.21242 294.32242,327.21242 C 294.39305,327.21242 294.40945,327.20037 294.79327,326.86669 C 294.93216,326.74593 295.07081,326.64648 295.10138,326.64567 C 295.17494,326.64373 297.39078,324.40483 297.63623,324.08444 C 297.74145,323.9471 297.98222,323.62164 298.17128,323.36121 C 298.36033,323.10078 298.532,322.8735 298.55278,322.85613 C 298.57355,322.83877 298.6096,322.78195 298.63289,322.72987 C 298.68136,322.62147 298.81862,322.39788 298.86544,322.35106 C 298.93717,322.27933 299.06562,322.0459 299.22152,321.70393 C 299.31255,321.50427 299.40981,321.34091 299.43765,321.34091 C 299.4655,321.34091 299.50857,321.27698 299.53337,321.19885 C 299.55816,321.12072 299.56742,321.0568 299.55394,321.0568 C 299.54046,321.0568 299.60851,320.92185 299.70517,320.75691 C 299.80183,320.59197 299.86225,320.45702 299.83943,320.45702 C 299.81661,320.45702 299.84382,320.38699 299.8999,320.30141 C 299.95598,320.21582 300.00186,320.11823 300.00186,320.08455 C 300.00186,320.05086 300.035,319.94332 300.07549,319.84557 C 300.11599,319.74782 300.15505,319.64653 300.1623,319.62049 C 300.16955,319.59445 300.18259,319.55893 300.19127,319.54157 C 300.19995,319.52421 300.21415,319.48159 300.22284,319.44687 C 300.23152,319.41215 300.24434,319.37663 300.25134,319.36795 C 300.25834,319.35927 300.27714,319.29535 300.29312,319.2259 C 300.34225,319.01237 300.37058,318.91023 300.38067,318.91023 C 300.38599,318.91023 300.4007,318.86761 300.41338,318.81552 C 300.42605,318.76344 300.45092,318.664 300.46864,318.59455 C 300.62552,317.97973 300.64762,317.72493 300.64939,316.51111 C 300.65094,315.44171 300.60661,314.82496 300.51777,314.68021 C 300.49646,314.64549 300.47024,314.56026 300.45949,314.49081 C 300.43492,314.33197 299.98567,313.45174 299.84403,313.28491 C 299.8093,313.24401 299.72407,313.13057 299.65462,313.03283 C 299.43565,312.72464 298.77858,312.09188 298.58134,311.99925 C 298.3325,311.8824 298.10506,311.8736 297.95392,311.97499 C 297.78318,312.08953 297.75572,312.28097 297.69727,313.76476 C 297.67744,314.26826 297.64806,314.78675 297.63198,314.91697 C 297.61591,315.04718 297.59181,315.24606 297.57844,315.35891 C 297.56507,315.47176 297.53803,315.60671 297.51836,315.6588 C 297.49868,315.71088 297.46752,315.85294 297.44911,315.97447 C 297.4307,316.096 297.39925,316.26647 297.37923,316.35328 C 297.35921,316.44009 297.33659,316.53952 297.32896,316.57425 C 297.32134,316.60897 297.29291,316.6729 297.26579,316.7163 C 297.23868,316.75971 297.23093,316.79522 297.24857,316.79522 C 297.26621,316.79522 297.24206,316.88755 297.1949,317.00041 C 297.14775,317.11326 297.10659,317.2269 297.10342,317.25294 C 297.10026,317.27899 297.0955,317.3074 297.09285,317.31608 C 297.09019,317.32476 297.07763,317.38747 297.06494,317.45543 C 297.05225,317.5234 297.00801,317.65124 296.96663,317.73954 C 296.92524,317.82783 296.86297,317.9711 296.82824,318.05791 C 296.79352,318.14472 296.74243,318.27257 296.71471,318.34201 C 296.5483,318.75899 296.12943,319.60799 296.08136,319.62575 C 296.05003,319.63733 296.02439,319.67364 296.02439,319.70645 C 296.02439,319.85665 295.14034,320.98074 294.66448,321.43561 C 294.06987,322.00399 294.01096,322.05511 293.87781,322.11818 C 293.82573,322.14286 293.69788,322.21784 293.59371,322.28482 C 293.42882,322.39083 293.1198,322.50825 292.80453,322.58469 C 292.58403,322.63815 292.25355,322.63938 292.05765,322.58746 C 291.65716,322.48132 291.58051,322.10402 291.5094,319.88881 C 291.39905,316.45116 291.39565,316.39444 291.26241,315.76859 C 291.2346,315.63799 291.18666,315.51557 291.15587,315.49654 C 291.12508,315.47751 291.0999,315.4198 291.0999,315.3683 C 291.0999,315.20681 290.50213,314.5573 290.40739,314.61586 C 290.37638,314.63502 290.33364,314.6226 290.31241,314.58826 C 290.26465,314.51098 289.61185,314.56652 289.43113,314.66324 C 289.35931,314.70167 289.30056,314.72415 289.30056,314.71318 C 289.30056,314.70222 289.23664,314.71354 289.15851,314.73834 C 289.08038,314.76313 289.01646,314.80536 289.01646,314.83217 C 289.01646,314.85898 288.94436,314.91376 288.85625,314.95391 C 288.76813,314.99406 288.65276,315.06254 288.59987,315.1061 C 288.42285,315.25187 287.45454,316.25455 287.15156,316.60582 C 286.98682,316.7968 286.80634,316.99901 286.75048,317.05518 C 286.69462,317.11136 286.57788,317.2462 286.49107,317.35485 C 286.40426,317.4635 286.27642,317.62003 286.20697,317.70272 C 286.13752,317.7854 286.00967,317.94473 285.92286,318.05678 C 285.83605,318.16883 285.73272,318.29492 285.69324,318.33697 C 285.6324,318.40178 284.21385,320.12892 283.56703,320.92574 C 283.32355,321.22567 282.37543,322.19031 282.07801,322.4407 C 281.82272,322.65562 281.34161,322.84336 281.12313,322.81331 C 281.03715,322.80149 280.93087,322.78734 280.88696,322.78188 C 280.75019,322.76488 280.30162,322.34495 280.13026,322.07351 C 280.04031,321.93101 279.97865,321.81316 279.99325,321.81164 C 280.00784,321.81011 279.96941,321.73198 279.90784,321.63802 C 279.84628,321.54406 279.81006,321.46717 279.82736,321.46717 C 279.84467,321.46717 279.82859,321.38905 279.79165,321.29355 C 279.69453,321.04257 279.65066,320.83824 279.57135,320.26762 C 279.5185,319.88738 279.52244,318.35811 279.57728,317.96321 C 279.60139,317.78959 279.6304,317.57651 279.64175,317.4897 C 279.6857,317.15352 279.72515,316.94234 279.78932,316.6999 C 279.82599,316.56134 279.87025,316.37695 279.88768,316.29014 C 279.9051,316.20333 279.93633,316.04907 279.95708,315.94733 C 279.97783,315.84559 280.0142,315.73195 280.0379,315.69479 C 280.0616,315.65763 280.08497,315.60592 280.08984,315.57988 C 280.09472,315.55384 280.10581,315.51832 280.11449,315.50096 C 280.12317,315.4836 280.13737,315.44098 280.14605,315.40626 C 280.15473,315.37154 280.16894,315.32892 280.17762,315.31156 C 280.1863,315.2942 280.19934,315.25868 280.20659,315.23264 C 280.21384,315.2066 280.2529,315.10531 280.2934,315.00756 C 280.33389,314.90981 280.36702,314.81082 280.36702,314.78759 C 280.36702,314.76436 280.43678,314.60285 280.52204,314.42867 C 280.6073,314.2545 280.74029,313.96995 280.81757,313.79633 C 280.89486,313.62271 280.97959,313.46587 281.00585,313.4478 C 281.03212,313.42974 281.08525,313.3445 281.12394,313.2584 C 281.16262,313.1723 281.25673,312.99626 281.33307,312.86721 C 281.70853,312.23254 281.94023,311.74134 281.90609,311.65238 C 281.83543,311.46824 281.28977,311.41246 280.90297,311.54985 C 280.56876,311.66855 279.72564,312.0586 279.67254,312.11908 C 279.65518,312.13885 279.56333,312.19504 279.46842,312.24395 C 279.37352,312.29285 279.23976,312.38514 279.17117,312.44903 C 279.10259,312.51293 279.02799,312.56521 279.00539,312.56521 C 278.93038,312.56521 277.83038,313.63852 277.62067,313.91632 C 277.55122,314.00832 277.45889,314.12347 277.41549,314.17221 C 277.37208,314.22094 277.33657,314.29126 277.33657,314.32846 C 277.33657,314.36567 277.31147,314.39611 277.2808,314.39611 C 277.25012,314.39611 277.20784,314.44583 277.18683,314.50659 C 277.16582,314.56736 277.09224,314.70231 277.02331,314.80648 C 276.83724,315.08771 276.57179,315.59566 276.61091,315.59566 C 276.62966,315.59566 276.59846,315.66669 276.54158,315.7535 C 276.4847,315.84031 276.45724,315.91134 276.48056,315.91134 C 276.50388,315.91134 276.48096,315.98946 276.42964,316.08496 C 276.30857,316.3102 276.25367,316.45962 276.18027,316.76365 C 276.17189,316.79838 276.14284,316.8623 276.11573,316.9057 C 276.08861,316.94911 276.08331,316.98462 276.10394,316.98462 C 276.12457,316.98462 276.1134,317.03705 276.0791,317.10112 C 276.02089,317.2099 275.9833,317.35486 275.91284,317.74224 C 275.89705,317.82905 275.87078,317.95689 275.85447,318.02634 C 275.69923,318.68714 275.66356,319.11525 275.66771,320.26762 C 275.67186,321.4188 275.72612,322.11186 275.8506,322.6036 C 275.87257,322.69041 275.90087,322.80405 275.91347,322.85613 C 275.92608,322.90822 275.96662,323.02896 276.00357,323.12446 C 276.04052,323.21995 276.05377,323.29808 276.03302,323.29808 C 276.01226,323.29808 276.03065,323.34069 276.07388,323.39278 C 276.1171,323.44486 276.13131,323.48748 276.10544,323.48748 C 276.07958,323.48748 276.08789,323.52299 276.12391,323.5664 C 276.15994,323.6098 276.19544,323.67373 276.20281,323.70845 C 276.22799,323.82698 276.27544,323.96088 276.35943,324.15039 C 276.4056,324.25456 276.47733,324.43213 276.51883,324.54498 C 276.56032,324.65784 276.61646,324.75017 276.64357,324.75017 C 276.67069,324.75017 276.72365,324.8283 276.76127,324.92379 C 276.83149,325.10203 276.94103,325.28813 277.05246,325.41846 C 277.08719,325.45908 277.15821,325.55465 277.2103,325.63084 C 277.45322,325.9862 278.27556,326.74281 278.61892,326.92688 C 278.747,326.99555 278.8518,327.07368 278.8518,327.1005 C 278.8518,327.12733 278.9023,327.14928 278.96402,327.14928 C 279.02574,327.14928 279.13942,327.19354 279.21664,327.24763 C 279.29387,327.30172 279.40673,327.35717 279.46745,327.37086 C 279.52817,327.38454 279.64887,327.41277 279.73568,327.43358 C 279.82249,327.4544 279.96454,327.48795 280.05135,327.50814 C 280.3018,327.5664 281.40874,327.5309 281.40874,327.46461 C 281.40874,327.45964 281.47855,327.44276 281.56387,327.4271 C 281.80307,327.38319 282.36897,327.09957 282.79307,326.81103 C 283.18052,326.54743 284.15351,325.6111 284.50234,325.16616 C 284.60651,325.03329 284.75522,324.84982 284.83281,324.75845 C 285.01992,324.53812 285.03315,324.52073 285.3159,324.12356 C 285.45001,323.93517 285.58514,323.75051 285.6162,323.71318 C 285.77026,323.52803 285.90034,323.35981 285.986,323.23495 C 286.03808,323.15903 286.14459,323.02143 286.22268,322.92917 C 286.30076,322.83692 286.36469,322.74447 286.36473,322.72374 C 286.36477,322.70301 286.41452,322.62753 286.47529,322.55601 C 286.53606,322.48449 286.62839,322.36385 286.68048,322.28792 C 286.73256,322.212 286.8178,322.09729 286.86988,322.03301 C 286.92197,321.96873 287.03561,321.82328 287.12242,321.70979 C 287.49466,321.22314 287.9163,320.77655 288.0063,320.77359 C 288.04309,320.77239 288.02611,321.28617 287.98026,321.56188 C 287.96293,321.66605 287.93276,321.85072 287.9132,321.97225 C 287.86739,322.2569 287.81627,322.53889 287.78158,322.6983 C 287.63819,323.35728 287.60277,323.72726 287.60329,324.56077 C 287.60403,325.76664 287.69035,326.19616 288.08543,326.95988 C 288.45821,327.68049 289.12557,328.41197 289.41023,328.41197 C 289.45599,328.41197 289.55658,328.4562 289.63375,328.51025 C 289.71093,328.56431 289.77407,328.59131 289.77407,328.57025 C 289.77407,328.5492 289.82379,328.56035 289.88456,328.59503 C 289.99183,328.65626 291.09222,328.64184 291.41557,328.57496 L 291.41557,328.57496 z M 273.93323,323.35613 C 273.87586,323.2126 273.87193,323.21652 273.86817,323.42119 C 273.86542,323.57069 273.88457,323.6186 273.92923,323.57394 C 273.97231,323.53086 273.97366,323.45728 273.93323,323.35613 L 273.93323,323.35613 z M 273.88593,322.77722 C 273.83311,322.24872 273.80103,322.23878 273.80103,322.75091 C 273.80103,322.98505 273.82862,323.17181 273.8632,323.17181 C 273.90157,323.17181 273.91027,323.02079 273.88593,322.77722 L 273.88593,322.77722 z M 273.84298,321.76485 C 273.8587,321.33014 273.90496,320.79719 273.9565,320.45702 C 273.96965,320.37021 273.99642,320.18554 274.01599,320.04665 C 274.05632,319.7603 274.1109,319.50464 274.21141,319.1312 C 274.22543,319.07911 274.24973,318.97967 274.26541,318.91023 C 274.31825,318.67628 274.75486,317.33358 274.84025,317.14246 C 274.88679,317.03829 274.96903,316.85362 275.02301,316.73208 C 275.449,315.77297 275.83756,315.05274 276.27238,314.4163 C 276.37155,314.27115 276.45268,314.12199 276.45268,314.08484 C 276.45268,314.04769 276.48109,314.0173 276.51582,314.0173 C 276.55054,314.0173 276.57895,313.9912 276.57895,313.95931 C 276.57895,313.86522 276.99356,313.4066 277.83927,312.56521 C 278.61325,311.79517 279.03173,311.44274 279.60941,311.07445 C 279.76567,310.97483 279.90772,310.87885 279.92508,310.86116 C 279.99461,310.79033 280.22996,310.66188 280.63535,310.47349 C 280.86973,310.36457 281.0615,310.25085 281.0615,310.22077 C 281.0615,310.1907 281.08435,310.1732 281.11227,310.18188 C 281.14019,310.19056 281.26094,310.15177 281.38059,310.09567 C 281.50025,310.03958 281.69759,309.95123 281.81912,309.89934 C 281.94065,309.84745 282.11112,309.77457 282.19793,309.7374 C 282.28474,309.70023 282.4694,309.63572 282.6083,309.59405 C 282.7472,309.55238 282.89635,309.49011 282.93976,309.45565 C 282.98316,309.42121 283.01868,309.41418 283.01868,309.44005 C 283.01868,309.46591 283.05535,309.45664 283.10017,309.41944 C 283.145,309.38223 283.27756,309.3349 283.39475,309.31426 C 283.51194,309.29361 283.63142,309.26214 283.66025,309.24432 C 283.71015,309.21348 283.80341,309.18943 284.15067,309.11784 C 284.23505,309.10045 284.32728,309.07188 284.35562,309.05436 C 284.40833,309.02179 284.56931,308.98171 284.84958,308.9314 C 284.93639,308.91581 285.06423,308.8907 285.13368,308.87558 C 285.20313,308.86047 285.34518,308.83314 285.44935,308.81485 C 285.55353,308.79657 285.70978,308.76597 285.79659,308.74687 C 285.9541,308.71222 286.17145,308.67882 286.64891,308.61588 C 286.78781,308.59758 287.00089,308.5685 287.12242,308.55127 C 287.50908,308.49644 287.83128,308.46861 288.50752,308.43159 C 289.23489,308.39178 289.43812,308.33516 288.85336,308.33524 C 287.82355,308.33539 285.7784,308.61567 284.4904,308.93318 C 281.36249,309.70423 278.87477,311.10639 277.17541,313.05612 C 275.54825,314.92302 274.22105,317.85423 273.90048,320.28902 C 273.78097,321.19672 273.70903,322.33375 273.77516,322.26993 C 273.8034,322.24267 273.83392,322.01538 273.84298,321.76485 L 273.84298,321.76485 z M 301.14105,315.33119 C 300.73893,311.4036 297.86602,309.01949 292.82465,308.42977 C 292.02585,308.33633 289.40104,308.22658 289.4584,308.28902 C 289.47576,308.30793 289.94453,308.34341 290.50012,308.36787 C 292.17533,308.44163 292.15844,308.44041 293.1202,308.55785 C 293.24173,308.5727 293.45481,308.59853 293.59371,308.61527 C 293.73261,308.632 293.91727,308.66135 294.00408,308.6805 C 294.09089,308.69964 294.23295,308.72892 294.31976,308.74557 C 294.49637,308.77943 294.69192,308.82295 294.90375,308.87553 C 294.98188,308.89492 295.08842,308.92115 295.14051,308.93383 C 295.19259,308.9465 295.24231,308.9626 295.25099,308.9696 C 295.25967,308.9766 295.28808,308.98702 295.31413,308.99276 C 295.51299,309.03662 296.27893,309.30802 296.41898,309.38425 C 296.51447,309.43622 296.5926,309.466 296.5926,309.45041 C 296.5926,309.43482 296.85405,309.56106 297.17359,309.73095 C 297.49314,309.90083 297.77724,310.03982 297.80494,310.03982 C 297.83263,310.03982 297.85529,310.06823 297.85529,310.10296 C 297.85529,310.13768 297.89791,310.16609 297.94999,310.16609 C 298.00208,310.16609 298.04469,310.1945 298.04469,310.22923 C 298.04469,310.26395 298.08494,310.29236 298.13414,310.29236 C 298.18333,310.29236 298.23305,310.31367 298.24462,310.33971 C 298.25619,310.36576 298.39971,310.49476 298.56354,310.6264 C 299.26472,311.18976 300.01285,312.09397 300.32441,312.75461 C 300.43085,312.98031 300.55986,313.25231 300.6111,313.35905 C 300.66233,313.46579 300.71451,313.60784 300.72704,313.67473 C 300.73957,313.74161 300.75199,313.80343 300.75465,313.81211 C 300.75731,313.82079 300.75748,313.835 300.75504,313.84368 C 300.7526,313.85236 300.78352,313.94469 300.82376,314.04887 C 300.86399,314.15304 300.90986,314.3235 300.92569,314.42767 C 300.94152,314.53185 300.96975,314.70231 300.98842,314.80648 C 301.04618,315.12878 301.0661,315.34574 301.11884,316.22701 C 301.16821,317.0519 301.1705,317.06205 301.19,316.54268 C 301.20108,316.24753 301.17905,315.70236 301.14105,315.33119 L 301.14105,315.33119 z"
         style="fill:#000000;fill-opacity:1;stroke:#000000;stroke-width:0.06376588;stroke-miterlimit:4;stroke-dasharray:none;stroke-dashoffset:0;stroke-opacity:1" />
      <path
         id="path3292"
         d="M 282.73457,331.14681 C 279.93271,330.90435 277.77824,330.25981 276.10544,329.16362 C 275.51565,328.77712 274.37532,327.66368 274.0064,327.11407 C 273.37572,326.1745 272.9045,324.97603 272.69218,323.77158 C 272.54008,322.90878 272.53922,321.06681 272.69046,320.10978 C 273.25826,316.51693 275.12583,313.02942 277.57816,310.9825 C 280.55211,308.50019 284.31631,307.26985 289.4584,307.09939 C 295.52348,306.89835 299.72767,308.69054 301.51091,312.23722 C 302.07543,313.36001 302.3252,314.4249 302.38006,315.9429 C 302.49345,319.08048 301.42125,322.42095 299.44187,325.09698 C 298.84254,325.90724 297.49713,327.25265 296.68687,327.85197 C 294.12631,329.74596 290.84636,330.83767 286.85805,331.12345 C 286.01097,331.18415 283.34082,331.19928 282.73457,331.14681 L 282.73457,331.14681 z M 286.1754,329.92857 C 286.5708,329.90095 286.22685,329.89481 285.32309,329.91334 C 284.48971,329.93044 283.79602,329.95475 283.78155,329.96738 C 283.73741,330.00591 285.4703,329.97781 286.1754,329.92856 L 286.1754,329.92857 z M 282.18094,329.82032 C 282.11951,329.80431 282.03428,329.80536 281.99154,329.82265 C 281.94879,329.83995 281.99905,329.85305 282.10322,329.85176 C 282.2074,329.85047 282.24237,329.83632 282.18094,329.82032 L 282.18094,329.82032 z M 281.739,329.75718 C 281.67757,329.74117 281.59234,329.74223 281.5496,329.75952 C 281.50685,329.77681 281.55711,329.78991 281.66128,329.78862 C 281.76545,329.78734 281.80043,329.77319 281.739,329.75718 L 281.739,329.75718 z M 281.26669,329.69598 C 281.22329,329.67847 281.15226,329.67847 281.10886,329.69599 C 281.06545,329.7135 281.10096,329.72783 281.18777,329.72783 C 281.27458,329.72783 281.3101,329.7135 281.26669,329.69599 L 281.26669,329.69598 z M 278.53612,328.98018 C 278.48404,328.94652 278.41301,328.91898 278.37829,328.91898 C 278.34356,328.91898 278.35777,328.94652 278.40985,328.98018 C 278.46194,329.01384 278.53297,329.04138 278.56769,329.04138 C 278.60241,329.04139 278.58821,329.01384 278.53612,328.98018 z M 278.27832,328.89277 C 278.21416,328.83356 277.08403,328.28773 277.08403,328.31596 C 277.08403,328.35386 278.16417,328.90929 278.24676,328.91385 C 278.27859,328.91561 278.29279,328.90612 278.27832,328.89277 L 278.27832,328.89277 z M 291.70536,328.47706 C 292.36623,328.31254 293.81663,327.57998 294.54073,327.04499 C 295.36626,326.43506 297.45923,324.31172 298.07831,323.45607 C 299.23614,321.8558 299.98419,320.32671 300.42572,318.65769 C 300.57402,318.09711 300.59559,317.88128 300.61813,316.73208 C 300.64739,315.2401 300.58079,314.7813 300.22669,314.03567 C 299.70745,312.94231 298.74326,311.93386 298.21711,311.93386 C 297.88135,311.93386 297.84116,312.03351 297.78187,313.01301 C 297.63928,315.36879 297.52018,316.11204 297.06808,317.46747 C 296.48403,319.21853 295.63639,320.58415 294.45813,321.67234 C 293.47337,322.58182 292.12584,322.94714 291.76957,322.40123 C 291.60684,322.15188 291.54852,321.51343 291.45064,318.91023 C 291.39841,317.52127 291.32683,316.23334 291.29157,316.04816 C 291.16611,315.38939 290.80077,314.81241 290.40539,314.64863 C 289.95886,314.46368 289.17665,314.69885 288.53343,315.21146 C 288.10246,315.5549 286.90388,316.89856 285.54374,318.56299 C 283.16161,321.47805 282.34092,322.36652 281.74768,322.67253 C 280.41949,323.35766 279.3957,321.60886 279.50817,318.84709 C 279.59978,316.59768 280.05842,315.08652 281.34896,312.78199 C 281.64227,312.25822 281.88225,311.78139 281.88225,311.72237 C 281.88225,311.59364 281.64125,311.49192 281.33623,311.49192 C 280.85053,311.49192 279.66352,312.08759 278.8384,312.74539 C 277.26448,314.00014 276.24734,315.89643 275.81776,318.37681 C 275.69679,319.07533 275.68524,319.32079 275.71392,320.58329 C 275.74924,322.13801 275.8073,322.51941 276.16889,323.57184 C 276.59471,324.8112 277.29427,325.85325 278.17743,326.56372 C 279.47333,327.60621 280.76447,327.80157 282.10322,327.1577 C 283.23301,326.61434 284.01569,325.81713 285.92353,323.26651 C 287.7776,320.78778 288.06992,320.47596 288.0691,320.97788 C 288.06877,321.17809 287.90857,322.19804 287.72094,323.19456 C 287.61594,323.7522 287.59684,325.1583 287.68679,325.70748 C 287.80829,326.44922 288.33899,327.48086 288.86569,327.99919 C 289.0007,328.13205 289.28162,328.32059 289.48996,328.41817 C 289.82848,328.57671 289.93989,328.59589 290.53737,328.59848 C 290.99976,328.60048 291.35999,328.56303 291.70536,328.47706 L 291.70536,328.47706 z M 276.95776,328.19322 C 276.95776,328.17708 276.89384,328.1329 276.81571,328.09504 C 276.6793,328.02893 276.67852,328.0301 276.79621,328.12438 C 276.92502,328.22758 276.95776,328.24154 276.95776,328.19322 L 276.95776,328.19322 z M 276.64209,328.00933 C 276.64209,327.99622 276.59237,327.9465 276.5316,327.89884 C 276.43147,327.82031 276.42923,327.82255 276.50776,327.92268 C 276.59024,328.02785 276.64209,328.06129 276.64209,328.00933 z M 294.57229,327.74582 C 294.57229,327.72846 294.48706,327.75833 294.38289,327.8122 C 294.27872,327.86606 294.19349,327.92434 294.19349,327.94171 C 294.19349,327.95907 294.27872,327.9292 294.38289,327.87533 C 294.48706,327.82146 294.57229,327.76318 294.57229,327.74582 L 294.57229,327.74582 z M 276.10544,327.56105 C 275.93182,327.40822 275.65207,327.13231 275.48376,326.94791 L 275.17775,326.61264 L 275.41665,326.91765 C 275.63733,327.19941 276.31689,327.84397 276.38955,327.84044 C 276.40691,327.8396 276.27906,327.71387 276.10544,327.56105 L 276.10544,327.56105 z M 295.01424,327.49208 C 295.01424,327.47472 294.95742,327.49092 294.88797,327.52809 C 294.81852,327.56526 294.7617,327.60987 294.7617,327.62723 C 294.7617,327.6446 294.81852,327.62839 294.88797,327.59122 C 294.95742,327.55406 295.01424,327.50944 295.01424,327.49208 z M 295.97704,326.85034 C 296.1767,326.69818 296.34006,326.55949 296.34006,326.54212 C 296.34006,326.51116 295.61176,327.04662 295.48775,327.16876 C 295.36579,327.28887 295.61092,327.12935 295.97704,326.85034 L 295.97704,326.85034 z M 297.47648,325.53331 C 297.59802,325.40225 297.40625,325.56216 297.05033,325.88867 C 296.6944,326.21519 296.4032,326.49327 296.4032,326.50663 C 296.4032,326.54717 297.24019,325.78814 297.47648,325.53331 L 297.47648,325.53331 z M 274.93745,326.20226 C 274.90029,326.13282 274.85567,326.076 274.83831,326.076 C 274.82095,326.076 274.83715,326.13282 274.87432,326.20226 C 274.91149,326.27171 274.9561,326.32853 274.97346,326.32853 C 274.99083,326.32853 274.97462,326.27171 274.93745,326.20226 z M 274.47141,325.33975 C 274.418,325.24119 274.37316,325.18052 274.37177,325.20493 C 274.3675,325.27997 274.51438,325.5731 274.54228,325.5452 C 274.55672,325.53076 274.52483,325.43831 274.47141,325.33975 L 274.47141,325.33975 z M 298.12009,324.79752 C 298.40934,324.43277 298.2952,324.51724 297.94945,324.92379 C 297.77965,325.12345 297.70633,325.22999 297.78653,325.16054 C 297.86672,325.0911 298.01683,324.92774 298.12009,324.79752 L 298.12009,324.79752 z M 274.31382,324.96009 C 274.23939,324.83211 274.22142,324.87307 274.28234,325.03183 C 274.30399,325.08826 274.33501,325.12112 274.35126,325.10487 C 274.36752,325.08861 274.35067,325.02346 274.31382,324.96009 L 274.31382,324.96009 z M 274.11641,324.38952 C 274.04762,324.28224 274.04583,324.28238 274.08037,324.39231 C 274.10035,324.45592 274.11895,324.54115 274.12169,324.58171 C 274.12529,324.63495 274.13531,324.63417 274.15773,324.57893 C 274.1748,324.53683 274.15621,324.4516 274.11641,324.38953 L 274.11641,324.38952 z M 298.43155,324.38715 C 298.51009,324.28701 298.50785,324.28478 298.40772,324.36331 C 298.30255,324.44579 298.26911,324.49763 298.32107,324.49763 C 298.33418,324.49763 298.3839,324.44791 298.43155,324.38715 z M 298.62096,324.13461 C 298.69949,324.03447 298.69726,324.03224 298.59712,324.11077 C 298.49196,324.19325 298.45851,324.24509 298.51047,324.24509 C 298.52358,324.24509 298.5733,324.19538 298.62096,324.13461 z M 299.21268,323.23494 C 299.26655,323.13077 299.29642,323.04554 299.27906,323.04554 C 299.2617,323.04554 299.20342,323.13077 299.14955,323.23494 C 299.09568,323.33911 299.06581,323.42434 299.08317,323.42434 C 299.10053,323.42434 299.15881,323.33911 299.21268,323.23494 z M 273.84245,322.77601 C 273.82515,322.73327 273.81205,322.78353 273.81334,322.8877 C 273.81463,322.99187 273.82878,323.02685 273.84478,322.96542 C 273.86079,322.90399 273.85974,322.81876 273.84245,322.77601 L 273.84245,322.77601 z M 299.43365,322.85613 C 299.47082,322.78669 299.48703,322.72987 299.46966,322.72987 C 299.4523,322.72987 299.40769,322.78669 299.37052,322.85613 C 299.33335,322.92558 299.31715,322.9824 299.33451,322.9824 C 299.35187,322.9824 299.39649,322.92558 299.43365,322.85613 z M 299.99657,321.68815 C 299.99657,321.65342 299.94213,321.72445 299.8756,321.84598 C 299.80906,321.96752 299.75462,322.09536 299.75462,322.13009 C 299.75462,322.16481 299.80906,322.09378 299.8756,321.97225 C 299.94213,321.85072 299.99657,321.72287 299.99657,321.68815 L 299.99657,321.68815 z M 273.96912,320.06243 C 273.9516,320.01903 273.93727,320.05454 273.93727,320.14135 C 273.93727,320.22816 273.9516,320.26367 273.96912,320.22027 C 273.98663,320.17686 273.98663,320.10584 273.96912,320.06243 L 273.96912,320.06243 z M 300.67136,319.7165 C 300.65038,319.69553 300.63545,319.73282 300.63819,319.79937 C 300.64122,319.87292 300.65618,319.88788 300.67634,319.83751 C 300.69458,319.79194 300.69233,319.73749 300.67135,319.71651 L 300.67136,319.7165 z M 274.02858,319.65337 C 274.0076,319.63239 273.99268,319.66968 273.99542,319.73624 C 273.99845,319.80979 274.01341,319.82474 274.03356,319.77438 C 274.0518,319.7288 274.04956,319.67435 274.02858,319.65337 L 274.02858,319.65337 z M 274.16725,319.16276 C 274.16725,319.06278 274.15673,319.06935 274.11671,319.19433 C 274.0889,319.28114 274.06616,319.40899 274.06616,319.47844 C 274.06616,319.57842 274.07668,319.57185 274.11671,319.44687 C 274.14451,319.36006 274.16725,319.23221 274.16725,319.16276 L 274.16725,319.16276 z M 300.86076,318.95889 C 300.83978,318.93791 300.82486,318.9752 300.8276,319.04176 C 300.83063,319.11531 300.84559,319.13026 300.86574,319.0799 C 300.88398,319.03432 300.88174,318.97987 300.86076,318.95889 L 300.86076,318.95889 z M 274.21798,318.83262 C 274.19701,318.81164 274.18208,318.84893 274.18482,318.91549 C 274.18785,318.98904 274.20281,319.004 274.22297,318.95363 C 274.24121,318.90806 274.23896,318.8536 274.21798,318.83262 L 274.21798,318.83262 z M 300.92756,318.67347 C 300.91005,318.63007 300.89572,318.66558 300.89572,318.75239 C 300.89572,318.8392 300.91005,318.87471 300.92756,318.83131 C 300.94507,318.7879 300.94508,318.71688 300.92756,318.67347 L 300.92756,318.67347 z M 274.7223,317.31664 C 274.69369,317.28802 274.30387,318.43919 274.3109,318.53157 C 274.31353,318.56621 274.41265,318.31249 274.53116,317.96776 C 274.64966,317.62302 274.73568,317.33001 274.72231,317.31664 L 274.7223,317.31664 z M 300.9907,318.3578 C 300.97318,318.31439 300.95885,318.34991 300.95885,318.43672 C 300.95885,318.52353 300.97318,318.55904 300.9907,318.51563 C 301.00821,318.47223 301.00821,318.4012 300.9907,318.3578 L 300.9907,318.3578 z M 301.05016,317.8856 C 301.02918,317.86463 301.01426,317.90191 301.017,317.96847 C 301.02003,318.04202 301.03499,318.05698 301.05515,318.00661 C 301.07338,317.96104 301.07114,317.90658 301.05016,317.8856 L 301.05016,317.8856 z M 275.06179,316.57425 C 275.06179,316.53952 275.03425,316.55373 275.00059,316.60582 C 274.96693,316.6579 274.93939,316.72893 274.93939,316.76365 C 274.93939,316.79838 274.96693,316.78417 275.00059,316.73208 C 275.03425,316.68 275.06179,316.60897 275.06179,316.57425 L 275.06179,316.57425 z M 301.17643,315.99157 C 301.15545,315.97059 301.14053,316.00788 301.14327,316.07443 C 301.1463,316.14798 301.16126,316.16294 301.18141,316.11258 C 301.19965,316.067 301.19741,316.01255 301.17643,315.99157 L 301.17643,315.99157 z M 275.4741,315.72193 C 275.56208,315.54831 275.61986,315.40626 275.60249,315.40626 C 275.58513,315.40626 275.49894,315.54831 275.41096,315.72193 C 275.32298,315.89555 275.26521,316.0376 275.28257,316.0376 C 275.29993,316.0376 275.38612,315.89555 275.4741,315.72193 z M 301.11971,315.26421 C 301.10466,315.18608 301.09235,315.25 301.09235,315.40626 C 301.09235,315.56252 301.10466,315.62644 301.11971,315.54831 C 301.13476,315.47018 301.13476,315.34234 301.11971,315.26421 L 301.11971,315.26421 z M 301.05383,314.75913 C 301.03632,314.71573 301.02199,314.75124 301.02199,314.83805 C 301.02198,314.92486 301.03632,314.96037 301.05383,314.91697 C 301.07134,314.87356 301.07134,314.80254 301.05383,314.75913 L 301.05383,314.75913 z M 278.47299,311.90688 C 278.76814,311.63317 278.88178,311.5059 278.72553,311.62406 C 278.32674,311.92562 277.37078,312.85167 277.06966,313.22812 C 276.91469,313.42186 277.0333,313.32377 277.37675,312.97417 C 277.68453,312.66087 278.17783,312.1806 278.47299,311.90688 z M 300.44381,312.82981 C 300.44381,312.80172 300.40073,312.72359 300.34808,312.65619 C 300.25931,312.54255 300.25775,312.54626 300.32665,312.70726 C 300.40098,312.88097 300.44381,312.92577 300.44381,312.82981 z M 300.00186,312.06013 C 299.92769,311.95596 299.85279,311.87073 299.83543,311.87073 C 299.81807,311.87073 299.86455,311.95596 299.93873,312.06013 C 300.01291,312.1643 300.0878,312.24953 300.10516,312.24953 C 300.12253,312.24953 300.07604,312.1643 300.00186,312.06013 z M 299.71413,311.66554 C 299.4565,311.35512 298.8834,310.77684 298.64562,310.58737 C 298.50736,310.4772 298.70623,310.70347 299.08756,311.09018 C 299.77301,311.78531 299.94337,311.94175 299.71413,311.66554 L 299.71413,311.66554 z M 280.80897,310.32069 C 280.80897,310.30332 280.72373,310.33319 280.61956,310.38706 C 280.51539,310.44093 280.43016,310.49921 280.43016,310.51658 C 280.43016,310.53394 280.51539,310.50407 280.61956,310.4502 C 280.72373,310.39633 280.80897,310.33805 280.80897,310.32069 z M 298.2341,310.26755 C 298.2341,310.2539 298.19001,310.22582 298.13612,310.20514 C 298.07993,310.18358 298.05459,310.19416 298.07671,310.22995 C 298.11378,310.28994 298.2341,310.31868 298.2341,310.26755 z M 281.44031,310.03982 C 281.4924,310.00616 281.5066,309.97862 281.47188,309.97862 C 281.43716,309.97862 281.36613,310.00616 281.31404,310.03982 C 281.26196,310.07348 281.24775,310.10102 281.28248,310.10102 C 281.3172,310.10103 281.38823,310.07348 281.44031,310.03982 z M 297.22395,309.6942 C 297.22395,309.65591 296.86783,309.47075 296.80092,309.47426 C 296.77315,309.47571 296.84987,309.53135 296.97141,309.59788 C 297.22025,309.73412 297.22395,309.73553 297.22395,309.69421 L 297.22395,309.6942 z M 283.97753,309.11281 C 283.93196,309.09457 283.8775,309.09682 283.85652,309.1178 C 283.83555,309.13877 283.87283,309.1537 283.93939,309.15096 C 284.01294,309.14793 284.0279,309.13297 283.97753,309.11281 z M 284.41947,308.98654 C 284.3739,308.96831 284.31944,308.97055 284.29846,308.99153 C 284.27749,309.01251 284.31477,309.02743 284.38133,309.02469 C 284.45488,309.02166 284.46984,309.0067 284.41947,308.98654 z M 285.3073,308.79845 C 285.2639,308.78094 285.19287,308.78094 285.14947,308.79845 C 285.10606,308.81597 285.14157,308.8303 285.22838,308.8303 C 285.31519,308.8303 285.35071,308.81597 285.3073,308.79845 L 285.3073,308.79845 z M 285.62297,308.73532 C 285.57957,308.71781 285.50854,308.71781 285.46514,308.73532 C 285.42173,308.75284 285.45725,308.76716 285.54406,308.76716 C 285.63087,308.76717 285.66638,308.75283 285.62297,308.73532 L 285.62297,308.73532 z M 285.9347,308.67087 C 285.88913,308.65263 285.83467,308.65488 285.81369,308.67585 C 285.79272,308.69683 285.83,308.71176 285.89656,308.70901 C 285.97011,308.70598 285.98507,308.69102 285.9347,308.67087 z M 286.38059,308.60905 C 286.33718,308.59154 286.26616,308.59154 286.22275,308.60905 C 286.17935,308.62657 286.21486,308.6409 286.30167,308.6409 C 286.38848,308.6409 286.42399,308.62657 286.38059,308.60905 L 286.38059,308.60905 z M 286.78976,308.54398 C 286.72833,308.52797 286.6431,308.52902 286.60036,308.54632 C 286.55762,308.56361 286.60787,308.57671 286.71205,308.57542 C 286.81622,308.57413 286.85119,308.55999 286.78976,308.54398 L 286.78976,308.54398 z M 293.54516,308.54398 C 293.48373,308.52797 293.3985,308.52902 293.35575,308.54632 C 293.31301,308.56361 293.36327,308.57671 293.46744,308.57542 C 293.57161,308.57413 293.60659,308.55999 293.54516,308.54398 L 293.54516,308.54398 z M 287.29484,308.48084 C 287.23341,308.46484 287.14818,308.46589 287.10543,308.48318 C 287.06269,308.50048 287.11295,308.51357 287.21712,308.51229 C 287.32129,308.511 287.35627,308.49685 287.29484,308.48084 L 287.29484,308.48084 z M 293.10442,308.48107 C 293.04365,308.46519 292.94421,308.46519 292.88345,308.48107 C 292.82268,308.49695 292.8724,308.50995 292.99393,308.50995 C 293.11547,308.50995 293.16518,308.49695 293.10442,308.48107 z M 288.05439,308.41808 C 287.99403,308.40228 287.88039,308.40171 287.80185,308.41681 C 287.72332,308.43191 287.77271,308.44484 287.9116,308.44554 C 288.0505,308.44624 288.11475,308.43388 288.05439,308.41808 L 288.05439,308.41808 z M 292.59814,308.41771 C 292.53671,308.4017 292.45148,308.40275 292.40874,308.42005 C 292.36599,308.43734 292.41625,308.45044 292.52042,308.44915 C 292.62459,308.44787 292.65957,308.43372 292.59814,308.41771 L 292.59814,308.41771 z M 291.46172,308.35457 C 291.40029,308.33857 291.31506,308.33962 291.27231,308.35691 C 291.22957,308.37421 291.27983,308.3873 291.384,308.38602 C 291.48817,308.38473 291.52315,308.37058 291.46172,308.35457 L 291.46172,308.35457 z"
         style="fill:#000000;fill-opacity:1;stroke:#000000;stroke-width:0.06376588;stroke-miterlimit:4;stroke-dasharray:none;stroke-dashoffset:0;stroke-opacity:1" />
      <path
         id="path3295"
         d="M 282.54517,331.15198 C 282.44099,331.13729 282.00063,331.08009 281.56658,331.02485 C 279.4445,330.75482 277.58864,330.12892 276.1551,329.19982 C 275.38563,328.70111 274.24731,327.54741 273.8152,326.8283 C 272.32733,324.35223 272.14354,321.09908 273.29492,317.6191 C 275.12103,312.09979 278.97874,308.78314 284.97585,307.57648 C 288.09653,306.94858 291.97124,306.91236 294.62573,307.48628 C 298.89098,308.40845 301.45902,310.70744 302.2189,314.2839 C 302.4648,315.4413 302.44421,317.42999 302.17099,318.91023 C 301.78465,321.00336 300.7508,323.34572 299.42007,325.14289 C 298.95435,325.77186 297.75116,327.01685 297.09768,327.54598 C 294.8186,329.39136 291.77383,330.56029 288.0063,331.03629 C 287.25457,331.13126 283.03253,331.22071 282.54517,331.15198 L 282.54517,331.15198 z M 291.92739,328.3745 C 292.77574,328.1065 294.04151,327.41562 294.79327,326.81024 C 295.31136,326.39303 296.88224,324.82937 297.4934,324.12252 C 298.77962,322.63491 299.85048,320.64317 300.38064,318.75239 C 300.64338,317.81534 300.66294,315.26999 300.41291,314.55394 C 300.15528,313.81614 299.70663,313.10497 299.14096,312.53776 C 298.57648,311.97175 298.08758,311.8072 297.91705,312.12583 C 297.88165,312.19198 297.81071,312.84234 297.75942,313.57106 C 297.62389,315.49668 297.51064,316.15931 297.10538,317.39788 C 296.30709,319.83767 294.79886,321.82192 293.24649,322.47467 C 292.78397,322.66915 292.16863,322.71964 291.95631,322.58052 C 291.60687,322.35156 291.57434,322.13499 291.44771,319.19433 C 291.32575,316.3621 291.27792,315.87611 291.0791,315.44945 C 290.77116,314.78864 290.33739,314.52194 289.76888,314.64386 C 288.71509,314.86986 288.38839,315.18802 284.80459,319.47844 C 283.25294,321.33603 282.25854,322.39313 281.81912,322.65215 C 281.14787,323.04782 280.42079,322.75859 279.99805,321.92774 C 279.4125,320.77692 279.32324,318.64257 279.7757,316.61078 C 280.05497,315.35668 280.385,314.55918 281.50002,312.44408 C 281.90728,311.67153 281.91191,311.60202 281.56081,311.5318 C 281.27008,311.47365 280.8384,311.59463 280.21406,311.90923 C 277.9422,313.05397 276.56294,315.00844 275.91128,318.00644 C 275.75606,318.72054 275.74248,318.89725 275.74476,320.17292 C 275.74821,322.10091 275.86418,322.80537 276.382,324.04382 C 277.16256,325.91066 278.6783,327.27251 280.18627,327.46186 C 281.34942,327.60791 282.38427,327.18137 283.53894,326.07998 C 284.24263,325.40876 284.6235,324.94892 286.16068,322.91464 C 287.30772,321.39669 287.83803,320.77269 287.98107,320.77269 C 288.11682,320.77269 288.09243,321.1377 287.87275,322.39413 C 287.71282,323.30887 287.67452,323.70778 287.66777,324.5292 C 287.65789,325.73147 287.71111,325.99566 288.14027,326.87506 C 288.62191,327.862 289.21543,328.40594 289.95845,328.54134 C 290.42962,328.6272 291.38323,328.5464 291.92739,328.3745 z"
         style="fill:#000000;fill-opacity:1;stroke:#000000;stroke-width:0.06376588;stroke-miterlimit:4;stroke-dasharray:none;stroke-dashoffset:0;stroke-opacity:1" />
    </g>
  </g>
</svg>
